<svg id="reg" enable-background="new 0 0 24 24" height="512" viewBox="0 0 24 24" width="512" xmlns="http://www.w3.org/2000/svg"><path d="m7.688 19.125c4.148 0 6.903-2.886 6.903-6.96 0-.466-.049-.827-.117-1.186h-6.786v2.449h4.079c-.167 1.04-1.235 3.072-4.079 3.072-2.451 0-4.451-2.012-4.451-4.501s2-4.501 4.451-4.501c1.402 0 2.334.593 2.863 1.098l1.951-1.856c-1.255-1.166-2.873-1.866-4.815-1.866-3.971.001-7.187 3.189-7.187 7.126s3.216 7.125 7.188 7.125z" fill="#f44336"/><path d="m7.781 19.5c5.16 0 8.244-4.205 7.374-8.612-.069-.352-.377-.605-.736-.605h-6.637c-.414 0-.75.336-.75.75v2.32c0 .414.336.75.75.75h2.941c-1.363 2.335-6.546 1.829-6.546-2.103 0-3.128 3.864-4.549 5.897-2.673.287.265.73.266 1.017 0l1.909-1.758c.325-.299.322-.814-.007-1.109-4.827-4.34-12.993-1.024-12.993 5.54 0 4.136 3.491 7.5 7.781 7.5zm3.556-12.439-.793.731c-3.116-2.094-7.867.08-7.867 4.208 0 6.049 8.972 6.685 9.835 1.476.075-.454-.274-.873-.74-.873h-3.24v-.82h5.24c.311 3.256-2.016 6.217-5.991 6.217-3.463 0-6.281-2.691-6.281-6 0-4.948 5.905-7.639 9.837-4.939z"/><path d="m21.25 14.75v-2h2c.992 0 .993-1.5 0-1.5h-2v-2c0-.992-1.5-.993-1.5 0v2h-2c-.992 0-.993 1.5 0 1.5h2v2c0 .992 1.5.993 1.5 0z"/></svg>